<?xml version="1.0" standalone="no"?>
<!DOCTYPE svg PUBLIC "-//W3C//DTD SVG 20010904//EN"
 "http://www.w3.org/TR/2001/REC-SVG-20010904/DTD/svg10.dtd">
<svg version="1.0" xmlns="http://www.w3.org/2000/svg"
 width="1920.000000pt" height="1280.000000pt" viewBox="0 0 1920.000000 1280.000000"
 preserveAspectRatio="xMidYMid meet">

<g transform="translate(0.000000,1280.000000) scale(0.100000,-0.100000)"
fill="#000000" stroke="none">
<path d="M9435 9234 c-255 -25 -420 -56 -595 -110 -309 -96 -616 -253 -880
-448 -111 -83 -338 -305 -434 -426 -168 -212 -324 -471 -402 -667 -19 -48 -39
-97 -44 -108 -16 -31 -76 -253 -95 -346 -21 -107 -53 -216 -74 -253 -21 -38
-71 -91 -71 -76 0 8 -10 11 -30 7 -16 -4 -32 -2 -35 3 -3 5 -12 7 -20 3 -8 -3
-15 -1 -15 4 0 5 -36 9 -81 9 -44 1 -84 5 -87 10 -11 15 -61 12 -55 -3 5 -13
0 -13 -44 3 -22 8 -56 12 -152 18 -41 3 -79 10 -85 16 -14 14 -26 13 -26 -4 0
-8 -7 -17 -15 -20 -11 -4 -15 0 -13 12 2 12 -3 16 -17 14 -11 -2 -23 -9 -26
-14 -4 -6 -12 -2 -18 11 -13 23 -59 29 -79 9 -9 -9 -15 -9 -24 0 -7 7 -23 12
-36 12 -13 0 -32 5 -43 10 -15 9 -21 7 -25 -5 -3 -8 -11 -15 -17 -15 -6 0 -7
3 -4 7 4 3 -3 11 -16 18 -15 8 -24 8 -29 1 -5 -7 -8 -7 -8 2 0 6 -6 12 -14 12
-8 0 -16 -6 -19 -12 -3 -10 -7 -10 -19 -1 -18 15 -29 7 -21 -15 3 -10 -3 -6
-13 8 -17 23 -24 25 -69 19 -27 -3 -51 -2 -53 3 -6 14 -34 9 -47 -9 -11 -15
-13 -15 -19 5 -9 28 -26 29 -26 2 0 -18 -3 -19 -21 -10 -11 7 -27 9 -36 6 -8
-3 -20 -3 -26 1 -16 10 -97 12 -97 2 0 -4 6 -10 13 -12 8 -4 9 -6 0 -6 -6 -1
-18 6 -26 14 -16 15 -87 10 -87 -6 0 -5 -10 -9 -22 -9 -18 0 -20 2 -8 10 24
15 5 21 -26 9 -37 -15 -65 -12 -82 9 -12 15 -12 13 -6 -12 5 -21 4 -27 -5 -22
-6 4 -11 16 -11 27 0 10 -5 19 -11 19 -6 0 -8 -9 -4 -21 5 -16 3 -20 -6 -16
-8 2 -13 10 -12 16 2 6 -4 11 -13 11 -8 0 -12 -4 -9 -10 3 -5 2 -10 -4 -10 -5
0 -13 5 -16 10 -10 16 -38 12 -32 -4 6 -16 -16 -12 -41 7 -7 5 -36 11 -65 12
-28 1 -62 7 -74 14 -19 10 -23 9 -23 -3 0 -10 -10 -14 -30 -14 -16 1 -30 6
-30 12 0 15 -53 17 -62 3 -6 -9 -11 -8 -18 3 -5 8 -10 11 -10 5 0 -5 -12 -11
-26 -11 -17 -2 -24 2 -20 11 4 10 -4 12 -32 8 -20 -3 -39 -9 -42 -14 -6 -8
-27 -12 -55 -9 l-20 1 20 9 c18 8 17 9 -8 9 -16 1 -37 -4 -47 -9 -16 -8 -18
-8 -14 5 4 8 11 15 17 15 6 0 7 3 4 6 -4 4 -14 1 -22 -6 -12 -10 -19 -10 -27
-2 -8 8 -15 6 -26 -5 -13 -13 -17 -13 -21 -2 -7 17 -28 17 -57 1 -24 -13 -35
-7 -27 14 3 8 0 14 -6 14 -6 0 -11 -5 -11 -12 0 -6 -3 -8 -7 -5 -3 4 -12 2
-20 -4 -10 -9 -13 -8 -13 4 0 8 -7 18 -16 21 -25 9 -27 7 -13 -11 13 -15 12
-16 -11 -9 -14 4 -34 8 -45 9 -11 1 -24 8 -28 15 -7 10 -12 10 -23 1 -10 -8
-14 -8 -14 0 0 6 -5 11 -11 11 -5 0 -8 -3 -6 -7 3 -5 -2 -15 -11 -23 -14 -13
-15 -12 -9 3 4 11 3 16 -4 12 -5 -4 -16 -1 -24 5 -12 10 -19 10 -31 -1 -15
-12 -16 -11 -9 10 7 21 6 23 -9 10 -9 -8 -25 -22 -35 -32 -19 -19 -39 -8 -26
13 11 17 -17 11 -30 -7 -14 -19 -37 -9 -28 12 4 11 1 13 -11 9 -11 -4 -16 0
-17 12 0 11 -3 14 -6 7 -2 -7 -11 -13 -19 -13 -8 0 -18 -8 -21 -17 -6 -14 -9
-12 -19 12 -10 23 -13 25 -14 10 0 -15 -3 -17 -9 -7 -11 19 -83 21 -89 3 -3
-8 0 -11 7 -7 7 5 9 1 5 -8 -9 -24 -21 -19 -29 12 -4 15 -10 21 -12 14 -3 -6
-9 -9 -14 -6 -6 3 -17 0 -25 -7 -11 -9 -18 -9 -22 -2 -7 10 -77 34 -84 28 -2
-1 -16 -5 -31 -9 -19 -4 -26 -3 -22 4 7 12 1 12 -47 1 -26 -6 -45 -5 -64 5
-24 13 -29 12 -45 -2 -16 -15 -17 -14 -12 5 3 12 1 21 -6 21 -6 0 -11 -4 -11
-10 0 -5 -13 -7 -30 -3 -19 3 -30 1 -30 -6 0 -6 -4 -11 -10 -11 -5 0 -10 6
-10 14 0 19 -99 33 -110 16 -4 -7 -13 -9 -19 -5 -21 12 -66 13 -73 1 -5 -7 -8
-5 -8 6 0 11 -5 15 -15 12 -8 -4 -15 -1 -15 6 0 7 -8 2 -19 -11 l-18 -22 -31
22 c-23 16 -30 18 -26 7 9 -23 -19 -20 -36 3 -12 17 -16 18 -33 6 -11 -7 -26
-11 -33 -8 -10 4 -14 -3 -15 -23 -1 -17 -3 -22 -6 -11 -2 9 -9 17 -14 17 -5 0
-9 8 -9 18 -1 16 -2 16 -14 -1 -9 -11 -17 -14 -20 -8 -4 6 -13 8 -21 4 -8 -3
-15 0 -15 7 0 6 -8 9 -17 6 -43 -13 -78 -15 -84 -5 -4 7 -15 3 -30 -12 l-24
-24 -3 23 c-4 23 -22 31 -22 9 0 -7 -9 -13 -21 -14 -16 -2 -20 3 -16 16 5 19
-1 20 -41 7 -14 -5 -28 -3 -37 4 -10 8 -14 8 -18 -2 -4 -8 -6 -7 -6 5 -1 9 -5
17 -10 17 -5 0 -8 -6 -7 -12 0 -7 -2 -14 -6 -15 -22 -8 -35 0 -46 25 -11 26
-11 25 -8 -13 2 -22 1 -32 -1 -22 -5 21 -65 50 -62 30 3 -19 -2 -27 -9 -16 -5
7 -41 15 -85 18 -71 6 -76 5 -71 -12 5 -17 5 -17 -9 0 -8 9 -21 15 -30 11 -8
-3 -18 0 -22 6 -5 9 -9 9 -14 1 -7 -11 -107 -18 -118 -8 -3 4 -11 3 -17 -3 -7
-5 -17 -5 -26 0 -12 8 -12 10 4 10 33 0 10 11 -33 16 -25 3 -41 1 -41 -6 0
-18 -20 -11 -21 8 0 14 -2 14 -7 2 -4 -8 -15 -16 -24 -16 -10 -1 -16 2 -13 6
3 5 1 11 -4 14 -5 4 -12 2 -16 -4 -3 -5 -24 -10 -46 -10 -27 0 -42 -5 -46 -16
-4 -12 -8 -13 -14 -3 -6 10 -11 10 -23 0 -11 -9 -16 -10 -16 -2 0 8 -16 10
-50 7 -27 -3 -52 0 -55 5 -3 5 1 6 9 3 11 -4 16 0 16 10 0 21 -24 21 -41 0
-12 -14 -14 -14 -25 1 -9 12 -14 13 -19 4 -6 -8 -12 -4 -21 12 -10 19 -13 20
-14 7 0 -10 -1 -18 -3 -18 -1 0 -16 4 -34 9 -22 7 -33 6 -37 -2 -3 -8 -8 -7
-15 3 -9 13 -12 12 -17 -7 -4 -13 -10 -23 -15 -23 -12 0 -11 27 1 35 13 8 13
25 -1 25 -6 0 -13 -9 -16 -19 -5 -19 -6 -18 -28 5 l-23 24 -6 -22 c-6 -22 -7
-22 -20 -5 -14 18 -44 14 -58 -7 -5 -7 -12 -4 -22 9 -13 19 -15 19 -21 3 -4
-10 -12 -18 -17 -18 -7 0 -7 4 0 13 6 7 7 18 3 26 -7 10 -10 10 -16 1 -6 -9
-10 -9 -17 1 -7 10 -8 6 -4 -12 4 -19 1 -29 -10 -33 -11 -4 -14 -1 -9 13 8 27
-4 51 -26 48 -27 -4 -35 -17 -19 -28 12 -9 11 -10 -4 -5 -11 4 -23 1 -28 -6
-6 -9 -7 -6 -3 8 6 23 -17 50 -35 39 -6 -3 -8 -9 -6 -13 2 -4 -2 -16 -10 -27
-12 -16 -16 -17 -23 -6 -5 7 -14 10 -20 7 -6 -4 -11 0 -11 8 0 9 -7 16 -15 16
-8 0 -15 4 -15 9 0 5 -7 11 -15 15 -12 4 -13 2 -6 -12 8 -15 5 -18 -14 -18
-15 0 -21 5 -18 13 7 18 -5 16 -24 -2 -14 -14 -17 -14 -30 5 -8 11 -11 25 -8
30 3 6 2 10 -3 10 -6 0 -13 -11 -16 -25 -4 -16 -11 -22 -21 -19 -11 5 -13 2
-9 -10 4 -10 1 -16 -8 -16 -15 0 -18 26 -4 48 4 6 2 12 -3 12 -6 0 -11 -4 -11
-10 0 -5 -15 -10 -34 -10 -19 0 -36 -5 -38 -12 -3 -7 -12 -9 -22 -5 -13 5 -17
14 -12 32 4 14 2 25 -4 25 -5 0 -10 -4 -10 -10 0 -5 -9 -10 -21 -10 -15 0 -19
-4 -15 -16 4 -10 1 -14 -6 -11 -7 2 -12 12 -10 21 2 13 -2 16 -15 12 -24 -8
-112 -19 -138 -18 -11 1 -25 8 -31 17 -12 16 -44 11 -44 -7 0 -6 6 -5 15 2 12
10 15 10 15 -3 0 -8 -7 -17 -15 -21 -13 -5 -15 -415 -15 -3611 l0 -3605 9600
0 9600 0 0 3900 c0 3636 -1 3901 -17 3919 -9 11 -20 18 -25 15 -4 -3 -8 0 -8
5 0 6 -4 11 -10 11 -5 0 -7 -6 -4 -14 3 -8 1 -17 -5 -21 -6 -3 -11 1 -11 9 0
12 -6 13 -32 5 -18 -5 -42 -9 -53 -8 -16 1 -15 2 5 8 18 5 21 9 12 15 -8 5
-20 2 -30 -6 -32 -28 -46 -33 -39 -14 4 11 3 15 -4 10 -6 -4 -16 0 -21 7 -8
11 -9 10 -4 -3 4 -13 0 -18 -14 -18 -11 0 -20 5 -20 12 0 7 -6 6 -17 -4 -20
-16 -40 -18 -51 -3 -8 12 -63 14 -56 3 3 -4 -2 -8 -10 -8 -9 0 -16 5 -16 10 0
6 -5 10 -11 10 -6 0 -9 -6 -6 -14 3 -8 -2 -16 -14 -19 -15 -4 -19 -2 -15 8 3
8 1 17 -4 20 -6 4 -10 1 -10 -6 0 -8 -3 -9 -13 0 -8 6 -17 8 -21 4 -6 -6 -20
-10 -77 -16 -14 -2 -31 -7 -37 -11 -8 -5 -10 -2 -5 10 6 15 2 16 -28 9 -19 -4
-47 -8 -64 -7 -122 4 -163 -1 -138 -16 6 -4 -10 -7 -36 -6 -26 0 -52 4 -59 8
-7 4 -17 4 -22 1 -5 -3 -10 -1 -10 6 0 8 -5 7 -17 -2 -9 -8 -18 -13 -20 -11
-10 7 -23 0 -17 -10 4 -7 -2 -5 -13 5 -11 9 -22 14 -26 11 -6 -6 -69 -15 -122
-17 -11 0 -23 -6 -27 -11 -6 -8 -10 -8 -15 -1 -13 19 -52 15 -67 -6 -15 -22
-33 -9 -20 14 6 10 4 10 -7 0 -19 -18 -37 -16 -42 5 -4 13 -5 14 -6 1 -2 -26
-43 -42 -82 -31 -37 10 -75 -1 -96 -28 -11 -13 -12 -13 -13 1 0 12 -8 15 -32
12 -29 -3 -30 -2 -10 7 12 5 22 12 22 15 0 2 -10 4 -22 2 -26 -2 -52 -23 -44
-35 2 -4 1 -14 -5 -22 -7 -12 -9 -10 -9 8 0 17 -5 22 -17 20 -10 -2 -17 -11
-15 -19 1 -8 -6 -4 -17 9 -18 20 -20 21 -24 5 -3 -13 -5 -11 -6 7 -2 25 -2 25
-16 -5 -9 -20 -14 -24 -14 -12 -1 9 -5 17 -11 17 -5 0 -7 -6 -4 -14 4 -10 -3
-13 -23 -12 -15 1 -34 5 -40 9 -15 10 -36 0 -28 -13 6 -10 -48 -6 -65 5 -5 3
-10 1 -10 -5 0 -12 -48 -34 -67 -31 -6 1 -13 -4 -16 -11 -2 -7 -2 -3 -1 9 2
12 0 25 -6 28 -5 3 -10 -3 -10 -15 0 -19 -4 -21 -30 -15 -24 5 -29 4 -24 -8 4
-12 -4 -14 -46 -12 -39 2 -50 0 -46 -10 2 -7 -2 -16 -10 -19 -22 -9 -23 -8
-17 15 4 16 2 20 -8 17 -8 -3 -14 -15 -13 -28 l1 -22 -18 23 c-17 23 -18 23
-38 5 -11 -10 -27 -16 -34 -13 -8 3 -20 0 -26 -6 -10 -9 -15 -8 -25 6 -16 21
-30 22 -22 1 10 -27 -34 -58 -49 -34 -4 6 1 7 12 4 15 -5 16 -4 3 5 -21 15
-50 14 -56 -3 -3 -8 -12 -12 -20 -9 -8 3 -14 1 -14 -5 0 -5 -11 -7 -25 -5 -13
3 -48 -1 -77 -8 -29 -7 -78 -13 -108 -15 -88 -4 -113 -14 -103 -42 6 -15 5
-15 -11 1 -20 19 -64 16 -77 -5 -4 -6 -9 -5 -12 3 -5 12 -7 11 -16 -1 -5 -8
-13 -11 -17 -7 -4 4 -13 2 -21 -5 -10 -8 -17 -8 -25 0 -16 16 -28 15 -28 -3 0
-8 -4 -15 -10 -15 -5 0 -10 5 -10 10 0 14 -34 12 -48 -2 -10 -10 -14 -10 -20
-1 -6 10 -14 9 -36 -2 -15 -8 -61 -16 -102 -17 -69 -3 -90 -10 -61 -21 6 -3
-3 -4 -20 -4 -18 1 -33 5 -33 10 0 4 -5 7 -11 7 -5 0 -7 -4 -4 -10 3 -5 2 -10
-4 -10 -5 0 -13 5 -16 10 -3 6 -11 10 -16 10 -6 0 -8 -4 -4 -9 3 -6 -12 -10
-33 -9 -22 0 -49 -5 -60 -11 -20 -10 -22 -9 -23 11 -1 19 -2 19 -6 5 -5 -19
-11 -19 -58 -2 -16 5 -17 5 -5 -4 13 -10 8 -15 -12 -12 -5 0 -8 -4 -8 -9 0 -6
-7 -10 -15 -10 -8 0 -15 8 -15 18 -1 16 -1 16 -11 0 -12 -22 -29 -23 -29 -3 0
8 -4 15 -10 15 -5 0 -10 -9 -10 -21 0 -15 -4 -19 -16 -15 -9 3 -18 6 -20 6 -3
0 -2 5 1 10 3 6 0 10 -9 10 -8 0 -17 -6 -19 -12 -4 -10 -6 -9 -6 1 -1 11 -4
11 -16 1 -8 -7 -15 -9 -15 -6 0 4 -7 0 -16 -8 -18 -18 -34 -21 -34 -5 0 7 -28
9 -80 8 -64 -3 -80 -6 -80 -19 0 -12 -2 -13 -9 -1 -7 11 -24 13 -70 8 -34 -3
-64 -1 -67 4 -3 6 -11 6 -19 -1 -8 -7 -19 -9 -25 -5 -6 4 -17 1 -25 -5 -12
-10 -20 -9 -39 4 -17 10 -27 12 -31 5 -4 -6 -19 -9 -33 -8 -15 2 -33 0 -40 -5
-19 -11 -75 -11 -79 1 -4 12 -43 5 -43 -7 0 -5 -9 -6 -20 -3 -11 3 -27 0 -35
-7 -8 -7 -15 -8 -15 -3 0 13 -43 14 -52 0 -6 -9 -8 -9 -8 1 0 6 -5 12 -11 12
-6 0 -9 -6 -6 -13 3 -8 -3 -14 -14 -14 -16 -2 -17 2 -9 18 7 13 7 19 0 19 -5
0 -10 -5 -10 -11 0 -6 -7 -9 -15 -5 -8 3 -15 0 -15 -7 0 -8 -3 -8 -8 -2 -6 10
-15 11 -39 6 -5 -1 -1 -6 7 -11 11 -8 8 -9 -12 -4 -18 4 -28 2 -28 -5 0 -6 -5
-11 -10 -11 -7 0 -7 6 0 20 7 14 7 20 0 20 -5 0 -10 -5 -10 -11 0 -7 -10 -9
-27 -5 -21 5 -24 4 -13 -4 12 -8 9 -10 -12 -10 -16 0 -28 -4 -28 -10 0 -5 -5
-10 -11 -10 -8 0 -8 4 0 14 8 9 8 16 2 20 -5 4 -12 2 -16 -3 -3 -6 -12 -8 -20
-4 -8 3 -15 1 -15 -5 0 -5 -9 -12 -21 -15 -15 -4 -19 -2 -15 9 3 8 3 14 0 14
-10 0 -34 -29 -34 -42 -1 -8 -5 -7 -14 5 -10 13 -16 15 -21 7 -6 -9 -10 -9
-16 1 -7 11 -10 9 -15 -8 -4 -13 -10 -20 -15 -18 -4 3 -6 12 -2 20 3 8 0 15
-6 15 -6 0 -11 -10 -11 -21 0 -17 -3 -19 -14 -10 -9 8 -21 8 -39 2 -19 -8 -28
-6 -38 6 -12 13 -15 13 -30 -6 -10 -12 -25 -21 -34 -21 -9 0 -13 -4 -10 -10 3
-5 -1 -10 -10 -10 -10 0 -14 5 -9 13 6 10 4 10 -7 0 -7 -7 -18 -13 -24 -13 -5
0 -3 5 5 10 11 7 7 10 -17 10 -20 0 -36 -7 -42 -17 -6 -10 -11 -13 -11 -8 0 6
-9 11 -20 11 -13 0 -20 -7 -20 -20 0 -19 -1 -19 -16 -4 -16 15 -19 15 -42 0
-24 -16 -24 -16 -17 8 7 25 7 25 -11 5 -11 -11 -27 -26 -37 -34 -17 -13 -18
-12 -12 15 l7 29 -26 -30 c-14 -16 -25 -24 -26 -17 0 17 -29 15 -36 -3 -6 -14
-8 -13 -20 2 -12 17 -13 16 -14 -7 0 -18 -3 -21 -9 -11 -6 10 -10 10 -13 1 -3
-9 -13 -10 -42 -2 -33 10 -37 9 -31 -6 3 -9 3 -13 -1 -9 -4 4 -14 1 -22 -6
-13 -10 -14 -8 -7 13 7 22 6 23 -9 8 -9 -9 -16 -21 -16 -27 0 -6 -4 -11 -9
-11 -4 0 -6 11 -3 25 5 30 -14 34 -23 5 -7 -22 -20 -26 -30 -10 -3 6 -1 10 6
10 7 0 9 3 6 7 -4 3 -19 -4 -33 -18 -18 -17 -23 -19 -19 -6 6 15 3 15 -23 6
-17 -6 -33 -17 -36 -25 -9 -23 -25 -16 -19 9 4 21 4 21 -11 3 -11 -14 -22 -17
-42 -12 -23 6 -26 5 -16 -7 16 -19 5 -27 -40 -27 -21 0 -50 -7 -63 -16 -21
-14 -28 -14 -41 -3 -13 11 -17 10 -25 -4 -8 -13 -19 -15 -53 -11 -34 4 -45 1
-50 -12 -4 -12 -15 -15 -36 -12 -35 5 -40 -9 -8 -21 18 -6 19 -9 5 -14 -10 -4
-17 -3 -17 1 0 4 -12 13 -27 19 -22 11 -29 10 -43 -2 -9 -8 -21 -15 -27 -15
-6 0 -14 -8 -18 -17 -7 -17 -8 -16 -15 2 -7 15 -9 9 -10 -25 l-2 -45 -13 40
c-12 35 -14 37 -14 13 -1 -31 -21 -39 -21 -9 0 11 -5 23 -11 27 -8 4 -9 -4 -5
-27 3 -19 3 -28 0 -21 -8 18 -24 15 -25 -5 -1 -10 -5 -4 -9 12 -7 28 -8 28 -9
5 -1 -14 -6 -32 -11 -40 -8 -12 -10 -11 -10 8 0 15 -6 22 -20 22 -11 0 -19 -3
-19 -7 1 -5 1 -17 0 -28 -2 -20 -2 -20 -16 -1 -13 17 -15 18 -15 3 0 -9 -4
-17 -10 -17 -5 0 -10 9 -10 19 0 11 -4 23 -10 26 -6 4 -7 -1 -3 -11 4 -12 2
-15 -8 -12 -7 2 -17 19 -20 38 -8 37 -26 77 -48 103 -8 9 -11 17 -7 17 3 0 -1
17 -10 38 -8 20 -36 98 -61 172 -152 455 -379 827 -703 1150 -230 231 -509
414 -850 560 -202 86 -479 160 -710 190 -88 12 -425 21 -495 14z m9010 -1434
c-3 -5 -12 -10 -20 -10 -7 0 -16 -6 -18 -12 -3 -7 -6 -3 -6 10 -1 17 4 22 25
22 14 0 23 -4 19 -10z m-245 -9 c0 -6 -4 -13 -10 -16 -5 -3 -10 1 -10 9 0 9 5
16 10 16 6 0 10 -4 10 -9z m-285 -31 c3 -6 -1 -7 -9 -4 -18 7 -21 14 -7 14 6
0 13 -4 16 -10z m-202 -27 c-7 -2 -19 -2 -25 0 -7 3 -2 5 12 5 14 0 19 -2 13
-5z m-3793 -433 c0 -5 -4 -10 -10 -10 -5 0 -10 5 -10 10 0 6 5 10 10 10 6 0
10 -4 10 -10z m-13755 -118 c-3 -3 -5 0 -5 6 0 7 -12 12 -27 12 l-28 0 25 13
c22 12 26 11 33 -6 4 -11 5 -22 2 -25z m-100 28 c3 -5 -1 -10 -10 -10 -9 0
-13 5 -10 10 3 6 8 10 10 10 2 0 7 -4 10 -10z m325 -26 c0 -8 -5 -12 -10 -9
-6 4 -8 11 -5 16 9 14 15 11 15 -7z m220 -8 c0 -3 -4 -8 -10 -11 -5 -3 -10 -1
-10 4 0 6 5 11 10 11 6 0 10 -2 10 -4z m100 -6 c0 -5 -2 -10 -4 -10 -3 0 -8 5
-11 10 -3 6 -1 10 4 10 6 0 11 -4 11 -10z m947 -56 c-3 -3 -12 -4 -19 -1 -8 3
-5 6 6 6 11 1 17 -2 13 -5z m303 -14 c0 -5 -4 -10 -10 -10 -5 0 -10 5 -10 10
0 6 5 10 10 10 6 0 10 -4 10 -10z m11060 0 c0 -5 -4 -10 -10 -10 -5 0 -10 5
-10 10 0 6 5 10 10 10 6 0 10 -4 10 -10z m-11410 -4 c0 -3 -4 -8 -10 -11 -5
-3 -10 -1 -10 4 0 6 5 11 10 11 6 0 10 -2 10 -4z m135 -6 c3 -5 1 -10 -4 -10
-6 0 -11 5 -11 10 0 6 2 10 4 10 3 0 8 -4 11 -10z m572 -22 c-3 -8 -6 -5 -6 6
-1 11 2 17 5 13 3 -3 4 -12 1 -19z m398 12 c3 -5 1 -10 -4 -10 -6 0 -11 5 -11
10 0 6 2 10 4 10 3 0 8 -4 11 -10z m10120 -10 c3 -6 -1 -7 -9 -4 -18 7 -21 14
-7 14 6 0 13 -4 16 -10z m-145 -38 c0 -14 -11 -21 -26 -15 -21 8 -17 23 6 23
11 0 20 -4 20 -8z m-9014 -39 c-7 -7 -26 7 -26 19 0 6 6 6 15 -2 9 -7 13 -15
11 -17z m84 7 c0 -5 -5 -10 -11 -10 -5 0 -7 5 -4 10 3 6 8 10 11 10 2 0 4 -4
4 -10z m8674 -55 c-4 -8 -8 -15 -10 -15 -2 0 -4 7 -4 15 0 8 4 15 10 15 5 0 7
-7 4 -15z m-3344 -35 c0 -12 -60 -13 -79 -1 -8 5 3 9 33 9 25 1 46 -3 46 -8z
m379 -1 c105 -1 194 -6 197 -11 7 -10 -294 -11 -431 0 -81 6 -85 7 -45 13 25
3 55 5 67 3 11 -2 107 -4 212 -5z m-4149 -9 c0 -5 -4 -10 -10 -10 -5 0 -10 5
-10 10 0 6 5 10 10 10 6 0 10 -4 10 -10z m117 4 c-3 -3 -12 -4 -19 -1 -8 3 -5
6 6 6 11 1 17 -2 13 -5z m3503 -4 c0 -6 -34 -10 -82 -10 -57 0 -78 3 -68 10
20 13 150 13 150 0z m1203 -21 c-9 -9 -26 -9 -65 -2 l-53 10 65 2 c48 1 61 -2
53 -10z m96 1 c-9 -5 -28 -6 -45 0 -27 8 -26 8 16 9 32 0 40 -2 29 -9z m96 0
c8 -13 -35 -13 -55 0 -11 7 -7 10 17 10 17 0 35 -4 38 -10z m229 -10 c78 -6
197 -20 266 -31 172 -28 180 -29 180 -40 0 -11 -53 -11 -103 0 -22 5 -39 5
-43 0 -6 -11 -64 -8 -64 3 0 4 -19 8 -42 8 -24 0 -76 7 -118 15 -41 8 -117 18
-168 23 -51 5 -98 14 -105 21 -14 14 13 14 197 1z m-1506 -27 c-10 -2 -28 -2
-40 0 -13 2 -5 4 17 4 22 1 32 -1 23 -4z m323 -2 c-12 -8 -51 -4 -51 5 0 2 15
4 33 4 22 0 28 -3 18 -9z m-194 -37 c-3 -3 -12 -4 -19 -1 -8 3 -5 6 6 6 11 1
17 -2 13 -5z m40 0 c-3 -3 -12 -4 -19 -1 -8 3 -5 6 6 6 11 1 17 -2 13 -5z
m100 0 c-3 -3 -12 -4 -19 -1 -8 3 -5 6 6 6 11 1 17 -2 13 -5z m229 -17 c4 -4
-2 -7 -14 -7 -11 0 -24 5 -27 10 -7 11 30 8 41 -3z m481 7 c-3 -3 -12 -4 -19
-1 -8 3 -5 6 6 6 11 1 17 -2 13 -5z m-830 -30 c0 -12 -7 -14 -30 -10 -16 3
-37 7 -46 8 -9 0 4 4 29 8 25 4 45 8 46 8 0 1 1 -5 1 -14z m488 6 c15 -6 6 -9
-33 -9 -33 -1 -51 3 -47 9 7 12 52 12 80 0z m165 -1 c0 -5 -29 -9 -65 -9 -36
0 -65 4 -65 9 0 5 29 9 65 9 36 -1 65 -5 65 -9z m-995 -9 c3 -5 2 -10 -4 -10
-5 0 -13 5 -16 10 -3 6 -2 10 4 10 5 0 13 -4 16 -10z m232 4 c-10 -10 -88 -13
-81 -3 3 5 24 9 46 9 23 0 39 -3 35 -6z m183 -4 c0 -5 -9 -10 -19 -10 -11 0
-23 5 -26 10 -4 6 5 10 19 10 14 0 26 -4 26 -10z m110 -2 c0 -11 -62 -10 -79
1 -10 7 0 9 32 8 26 -1 47 -5 47 -9z m175 3 c3 -6 -23 -9 -62 -9 -45 0 -61 3
-48 9 28 11 103 11 110 0z m598 -4 c-3 -5 1 -13 8 -18 11 -7 10 -9 -3 -9 -10
0 -18 5 -18 10 0 6 -10 9 -23 6 -13 -2 -68 2 -123 9 l-99 12 132 -1 c75 0 129
-4 126 -9z m44 7 c-3 -3 -12 -4 -19 -1 -8 3 -5 6 6 6 11 1 17 -2 13 -5z
m-1294 -11 c-7 -2 -19 -2 -25 0 -7 3 -2 5 12 5 14 0 19 -2 13 -5z m884 -19
c-3 -3 -12 -4 -19 -1 -8 3 -5 6 6 6 11 1 17 -2 13 -5z m-84 -231 c76 -5 97 -9
93 -20 -4 -11 22 -12 144 -9 104 3 148 0 143 -7 -4 -7 0 -8 13 -2 10 4 42 7
69 6 28 0 181 -4 340 -8 160 -4 272 -10 250 -14 -32 -5 -24 -6 37 -8 53 -1 78
3 81 12 4 9 8 9 15 -2 8 -12 27 -12 104 -4 64 6 95 6 100 -1 4 -6 9 -8 13 -5
3 3 35 0 72 -7 37 -7 72 -10 77 -7 5 3 84 7 175 7 136 1 169 -1 184 -14 10 -8
32 -16 50 -17 63 -3 112 -14 150 -33 21 -11 53 -21 72 -23 18 -1 31 -4 29 -6
-2 -3 8 -13 23 -23 16 -10 22 -18 15 -18 -11 0 -12 -33 -2 -60 1 -3 1 -21 0
-40 -1 -27 -11 -43 -42 -72 -32 -29 -37 -38 -23 -38 15 0 16 -3 7 -12 -7 -7
-12 -20 -12 -29 0 -11 -9 -19 -22 -21 -13 -2 -23 -10 -22 -18 1 -9 -7 -17 -18
-17 -20 -2 -48 -26 -48 -42 0 -6 -7 -8 -15 -5 -9 4 -15 0 -15 -10 0 -11 -10
-16 -32 -17 -18 -1 -25 -3 -15 -6 9 -2 17 -9 17 -14 0 -6 -8 -8 -19 -4 -14 4
-20 0 -25 -18 -7 -29 -79 -70 -95 -54 -7 7 -13 3 -20 -14 -9 -21 -10 -22 -11
-4 -1 19 -2 19 -20 -4 -14 -17 -20 -19 -20 -8 0 13 -12 15 -67 11 -121 -7
-134 -22 -34 -40 23 -5 36 -2 42 7 8 12 11 12 19 -1 7 -11 10 -11 10 -2 0 7 4
11 10 7 18 -11 -2 -35 -26 -31 -13 3 -24 1 -24 -4 0 -5 -34 -25 -76 -45 -61
-29 -79 -34 -85 -23 -7 10 -9 10 -9 0 0 -7 -17 -20 -37 -29 -21 -8 -48 -24
-62 -34 -13 -10 -31 -19 -41 -19 -9 0 -27 -8 -38 -18 -18 -16 -20 -21 -8 -37
12 -17 14 -17 29 6 14 19 19 21 29 10 11 -10 9 -15 -6 -27 -11 -8 -28 -14 -38
-14 -10 0 -18 -4 -18 -10 0 -5 7 -7 15 -4 8 4 15 1 15 -5 0 -6 -7 -11 -15 -11
-8 0 -15 -6 -15 -12 0 -8 -7 -5 -15 6 -8 11 -15 14 -15 7 0 -7 -5 -9 -11 -6
-6 4 -13 -2 -16 -14 -5 -19 -20 -25 -60 -24 -6 0 -9 -6 -6 -13 4 -10 -5 -14
-32 -14 -42 0 -75 -15 -75 -34 0 -9 -8 -12 -25 -8 -17 3 -25 0 -26 -9 0 -8 -5
-3 -12 11 -11 24 -11 24 -15 -14 -2 -29 -6 -36 -12 -25 -8 11 -13 12 -29 2
-12 -8 -21 -8 -23 -2 -4 12 -68 0 -68 -12 0 -5 5 -9 11 -9 5 0 8 -4 4 -9 -3
-6 -18 -6 -38 0 -40 11 -37 12 -37 -7 0 -13 -8 -15 -35 -12 -29 3 -32 2 -22
-11 9 -12 9 -13 -1 -7 -14 8 -46 -19 -38 -33 4 -5 -9 -5 -32 0 -50 11 -52 11
-46 -5 4 -11 0 -13 -18 -9 -19 4 -20 3 -8 -6 11 -9 -1 -11 -52 -8 -57 4 -66 2
-61 -11 4 -10 2 -13 -5 -8 -7 4 -12 2 -12 -6 0 -9 -17 -13 -53 -14 -28 -1 -67
-4 -84 -8 -22 -5 -33 -4 -33 3 0 6 5 11 12 11 9 0 9 3 1 11 -19 19 -35 0 -27
-34 l6 -32 -26 30 c-24 28 -26 29 -26 8 0 -12 -4 -25 -10 -28 -6 -3 -7 1 -4
10 5 11 2 14 -10 9 -9 -3 -16 -11 -16 -18 0 -6 -5 -3 -11 7 -10 18 -12 18 -32
-4 -20 -22 -22 -22 -25 -5 -3 15 -6 16 -12 6 -7 -11 -11 -11 -24 -1 -9 8 -16
9 -16 3 0 -5 -12 -13 -27 -17 -20 -5 -31 -2 -41 12 -14 17 -14 17 -8 0 5 -15
2 -17 -17 -11 -12 4 -25 12 -29 18 -5 8 -8 7 -8 -2 0 -7 -6 -12 -12 -11 -28 3
-36 -2 -31 -21 4 -15 0 -20 -15 -20 -14 0 -19 5 -16 18 4 13 -2 17 -26 18 -16
1 -30 -3 -30 -9 0 -9 -30 -6 -62 8 -11 4 -18 3 -18 -4 0 -6 11 -16 25 -21 34
-13 32 -20 -5 -17 -16 1 -29 7 -29 12 3 22 -2 35 -11 35 -5 0 -10 -6 -10 -13
0 -7 -9 -18 -20 -25 -12 -7 -20 -8 -20 -2 0 5 5 10 10 10 6 0 10 7 10 15 0 9
-6 12 -17 8 -10 -4 -14 -2 -9 5 3 6 2 13 -3 17 -6 3 -8 -5 -5 -20 5 -28 2 -30
-27 -14 -16 8 -19 7 -17 -3 2 -7 -2 -13 -7 -13 -5 0 -8 6 -7 14 2 9 -2 12 -13
7 -9 -3 -22 -6 -29 -6 -7 0 -18 -10 -24 -22 -10 -22 -11 -22 -12 7 -1 17 -4
24 -7 17 -2 -6 -9 -9 -15 -6 -6 4 -14 0 -19 -7 -6 -10 -9 -11 -9 -1 0 6 -11
12 -25 12 -14 0 -25 -5 -25 -11 0 -6 -7 -3 -16 5 -32 32 -100 32 -73 0 9 -11
8 -14 -9 -14 -11 0 -22 8 -25 20 -5 20 -27 29 -27 11 0 -5 -20 -3 -44 4 -46
14 -69 6 -59 -21 3 -8 0 -14 -7 -14 -8 0 -11 9 -8 25 5 25 -5 34 -17 15 -4 -7
-13 -4 -23 7 -12 14 -28 18 -54 16 -35 -3 -51 9 -28 20 6 3 5 4 -2 3 -22 -4
-20 -26 4 -35 12 -6 16 -10 8 -10 -8 0 -26 6 -39 13 -14 8 -32 11 -40 8 -11
-3 -9 1 4 14 12 10 15 15 8 10 -7 -4 -19 -6 -27 -3 -8 3 -16 1 -18 -5 -3 -7
-14 -5 -31 7 -22 14 -25 20 -16 31 14 17 9 17 -28 3 -22 -8 -26 -8 -16 2 10
10 9 16 -3 30 -9 10 -22 15 -29 13 -7 -3 -15 3 -18 13 -3 12 -5 9 -6 -9 -1
-19 -5 -26 -15 -22 -8 3 -12 12 -10 19 7 17 -16 31 -25 16 -5 -7 -15 -9 -26
-5 -18 7 -18 8 -1 14 17 6 17 7 0 20 -10 8 -15 10 -11 3 15 -25 -22 -18 -93
18 -41 22 -81 39 -88 39 -7 0 -25 12 -39 28 -15 15 -23 21 -18 13 6 -10 4 -13
-6 -9 -83 33 -98 41 -92 51 4 6 0 8 -11 4 -9 -4 -31 2 -49 12 -17 10 -45 21
-61 25 -21 5 -27 11 -23 26 4 16 2 18 -13 10 -25 -13 -51 -13 -30 0 13 8 12
10 -2 10 -10 0 -18 8 -19 18 0 10 -3 12 -6 5 -8 -21 -40 -15 -48 10 -6 19 -8
19 -12 5 -2 -10 -9 -18 -14 -18 -6 0 -8 9 -4 20 5 15 3 18 -9 14 -10 -4 -16
-1 -16 10 0 8 -12 22 -27 30 -16 8 -39 24 -52 35 l-24 21 29 0 29 0 -31 19
c-41 25 -49 38 -34 56 10 12 9 15 -4 15 -9 0 -16 -4 -16 -10 0 -5 -8 -10 -17
-10 -15 0 -16 2 -3 10 18 11 11 19 -21 22 -13 2 -27 11 -31 21 -4 9 -14 17
-23 17 -18 0 -19 11 -2 29 10 11 9 13 -5 8 -10 -4 -18 -2 -18 4 0 6 -7 8 -16
5 -13 -5 -15 -2 -11 13 3 12 -1 22 -10 25 -8 3 -12 10 -9 15 3 5 0 9 -7 8 -35
-1 -47 5 -53 28 -3 14 -10 25 -15 25 -5 0 -9 7 -9 15 0 8 -5 15 -11 15 -5 0
-7 -4 -4 -10 3 -5 2 -10 -4 -10 -6 0 -8 16 -5 39 4 36 3 39 -16 34 -28 -7 -25
13 3 21 22 6 22 6 2 21 -11 8 -26 19 -32 25 -7 6 -13 8 -13 4 0 -4 -9 1 -20
11 -10 9 -19 20 -18 24 1 3 -2 14 -7 24 -10 24 -1 31 24 17 12 -6 21 -7 21 -3
0 10 35 14 138 14 45 0 82 4 82 9 0 5 -9 18 -21 29 l-21 19 24 8 c12 4 71 7
131 6 97 -2 107 -1 107 16 0 11 -8 18 -21 19 -46 4 -122 36 -126 54 -3 11 -13
19 -22 19 -13 1 -13 2 3 12 13 7 29 7 51 1 18 -6 45 -9 59 -8 14 2 26 -1 26
-6 0 -5 7 -9 16 -9 12 0 14 4 7 13 -5 6 -9 19 -8 27 1 20 116 19 165 -2 l35
-15 -60 -7 c-33 -4 -71 -10 -85 -13 l-25 -6 27 -7 c35 -10 218 -10 218 0 0 4
183 7 408 6 279 0 438 4 507 13 55 7 108 12 118 12 11 0 17 8 17 21 0 17 -5
20 -28 15 -31 -6 -64 6 -40 15 7 3 43 6 79 7 36 1 74 4 85 6 10 2 54 4 97 4
83 1 109 20 30 22 -27 1 -41 3 -33 5 34 9 228 22 270 18 25 -3 89 -8 143 -11z
m-2316 -419 c-3 -3 -12 -4 -19 -1 -8 3 -5 6 6 6 11 1 17 -2 13 -5z m163 -248
c0 -11 -19 -15 -25 -6 -3 5 1 10 9 10 9 0 16 -2 16 -4z m235 -237 c11 -17 -1
-21 -15 -4 -8 9 -8 15 -2 15 6 0 14 -5 17 -11z m3352 -95 c-3 -3 -12 -4 -19
-1 -8 3 -5 6 6 6 11 1 17 -2 13 -5z m-457 -194 c0 -5 -2 -10 -4 -10 -3 0 -8 5
-11 10 -3 6 -1 10 4 10 6 0 11 -4 11 -10z m-170 -70 c0 -5 -4 -10 -10 -10 -5
0 -10 5 -10 10 0 6 5 10 10 10 6 0 10 -4 10 -10z m-385 -100 c-3 -5 -10 -10
-16 -10 -5 0 -9 5 -9 10 0 6 7 10 16 10 8 0 12 -4 9 -10z m-1255 -24 c0 -2 -7
-7 -16 -10 -8 -3 -12 -2 -9 4 6 10 25 14 25 6z m-63 -12 c-3 -3 -12 -4 -19 -1
-8 3 -5 6 6 6 11 1 17 -2 13 -5z"/>
<path d="M9718 6483 c7 -3 16 -2 19 1 4 3 -2 6 -13 5 -11 0 -14 -3 -6 -6z"/>
<path d="M10698 6443 c7 -3 16 -2 19 1 4 3 -2 6 -13 5 -11 0 -14 -3 -6 -6z"/>
<path d="M9127 6433 c-10 -10 -8 -23 4 -23 5 0 8 4 4 9 -3 6 12 12 32 14 l38
4 -36 1 c-20 1 -39 -1 -42 -5z"/>
<path d="M7760 5649 c0 -5 5 -7 10 -4 6 3 10 8 10 11 0 2 -4 4 -10 4 -5 0 -10
-5 -10 -11z"/>
<path d="M8040 5489 c0 -5 5 -7 10 -4 6 3 10 8 10 11 0 2 -4 4 -10 4 -5 0 -10
-5 -10 -11z"/>
<path d="M8065 5470 c-3 -5 -1 -10 4 -10 6 0 11 5 11 10 0 6 -2 10 -4 10 -3 0
-8 -4 -11 -10z"/>
<path d="M10220 5215 c0 -5 5 -17 10 -25 5 -8 10 -10 10 -5 0 6 -5 17 -10 25
-5 8 -10 11 -10 5z"/>
<path d="M8680 5180 c0 -5 7 -7 15 -4 8 4 15 8 15 10 0 2 -7 4 -15 4 -8 0 -15
-4 -15 -10z"/>
<path d="M70 7270 c-11 -7 -12 -12 -4 -20 8 -8 13 -6 17 9 3 12 4 21 4 21 -1
0 -9 -5 -17 -10z"/>
<path d="M110 7260 c0 -5 4 -10 9 -10 6 0 13 5 16 10 3 6 -1 10 -9 10 -9 0
-16 -4 -16 -10z"/>
<path d="M13405 7237 c-4 -10 -5 -21 -1 -24 10 -10 18 4 13 24 -4 17 -4 17
-12 0z"/>
<path d="M311 7224 c0 -11 3 -14 6 -6 3 7 2 16 -1 19 -3 4 -6 -2 -5 -13z"/>
<path d="M640 7212 c0 -12 19 -26 26 -19 2 2 -2 10 -11 17 -9 8 -15 8 -15 2z"/>
<path d="M1335 7140 c4 -6 11 -8 16 -5 14 9 11 15 -7 15 -8 0 -12 -5 -9 -10z"/>
<path d="M1390 7130 c0 -5 5 -10 10 -10 6 0 10 5 10 10 0 6 -4 10 -10 10 -5 0
-10 -4 -10 -10z"/>
<path d="M1755 7130 c-3 -5 -1 -10 4 -10 6 0 11 5 11 10 0 6 -2 10 -4 10 -3 0
-8 -4 -11 -10z"/>
<path d="M12528 7043 c7 -3 16 -2 19 1 4 3 -2 6 -13 5 -11 0 -14 -3 -6 -6z"/>
<path d="M5970 6910 c0 -5 5 -10 10 -10 6 0 10 5 10 10 0 6 -4 10 -10 10 -5 0
-10 -4 -10 -10z"/>
</g>
</svg>
